<svg width="375" height="452" viewBox="0 0 375 452" fill="none" xmlns="http://www.w3.org/2000/svg">
<g filter="url(#filter0_d_0_393)">
<g clip-path="url(#clip0_0_393)">
<rect x="16" y="6" width="343" height="416" rx="8" fill="white"/>
<rect x="236.5" y="47.1363" width="9" height="9" transform="rotate(45 236.5 47.1363)" fill="#F1F1F5"/>
<rect x="195.631" y="11.7339" width="12.5815" height="12.5815" transform="rotate(45 195.631 11.7339)" fill="#F1F1F5"/>
<rect x="292.896" y="116.897" width="10.5334" height="10.5334" transform="rotate(45 292.896 116.897)" fill="#F1F1F5"/>
<rect x="324.448" y="190" width="10.5334" height="10.5334" transform="rotate(45 324.448 190)" fill="#F1F1F5"/>
<rect x="356.725" y="251.276" width="7.3148" height="7.3148" transform="rotate(45 356.725 251.276)" fill="#F1F1F5"/>
<rect x="277.448" y="94.4483" width="3.85246" height="3.85246" transform="rotate(45 277.448 94.4483)" fill="#F1F1F5"/>
<rect x="29.5517" y="305.345" width="3.85246" height="3.85246" transform="rotate(-135 29.5517 305.345)" fill="#F1F1F5"/>
<rect x="284.724" y="48.0001" width="3.85246" height="3.85246" transform="rotate(45 284.724 48.0001)" fill="#F1F1F5"/>
<rect x="112.276" y="381.793" width="3.85246" height="3.85246" transform="rotate(-135 112.276 381.793)" fill="#F1F1F5"/>
<rect x="299.724" y="137" width="3.85246" height="3.85246" transform="rotate(45 299.724 137)" fill="#F1F1F5"/>
<rect x="296.724" y="180" width="3.85246" height="3.85246" transform="rotate(45 296.724 180)" fill="#F1F1F5"/>
<rect x="334.724" y="227" width="3.85246" height="3.85246" transform="rotate(45 334.724 227)" fill="#F1F1F5"/>
<rect x="193.724" y="100" width="3.85246" height="3.85246" transform="rotate(45 193.724 100)" fill="#F1F1F5"/>
<rect x="143.723" y="121" width="3.85246" height="3.85246" transform="rotate(45 143.723 121)" fill="#F1F1F5"/>
<rect x="157.724" y="72" width="3.85246" height="3.85246" transform="rotate(45 157.724 72)" fill="#F1F1F5"/>
<rect x="172.723" y="137" width="3.85246" height="3.85246" transform="rotate(45 172.723 137)" fill="#F1F1F5"/>
<rect x="245.724" y="173" width="3.85246" height="3.85246" transform="rotate(45 245.724 173)" fill="#F1F1F5"/>
<rect x="200.724" y="178" width="3.85246" height="3.85246" transform="rotate(45 200.724 178)" fill="#F1F1F5"/>
<rect x="164.808" y="17.749" width="6.91742" height="6.91742" transform="rotate(45 164.808 17.749)" fill="#F1F1F5"/>
<rect x="321.724" y="249" width="3.85246" height="3.85246" transform="rotate(45 321.724 249)" fill="#F1F1F5"/>
<rect x="314.724" y="121" width="3.85246" height="3.85246" transform="rotate(45 314.724 121)" fill="#F1F1F5"/>
<rect x="155.276" y="369.793" width="3.85246" height="3.85246" transform="rotate(-135 155.276 369.793)" fill="#F1F1F5"/>
<rect x="119.072" y="301.797" width="7.66617" height="7.66617" transform="rotate(-135 119.072 301.797)" fill="#F1F1F5"/>
<rect x="290.724" y="67.0001" width="3.85246" height="3.85246" transform="rotate(45 290.724 67.0001)" fill="#F1F1F5"/>
<rect x="106.276" y="362.793" width="3.85246" height="3.85246" transform="rotate(-135 106.276 362.793)" fill="#F1F1F5"/>
<rect x="227.724" y="39.0001" width="3.85246" height="3.85246" transform="rotate(45 227.724 39.0001)" fill="#F1F1F5"/>
<rect x="323.724" y="9.00006" width="3.85246" height="3.85246" transform="rotate(45 323.724 9.00006)" fill="#F1F1F5"/>
<rect x="26.2763" y="371.793" width="3.85246" height="3.85246" transform="rotate(-135 26.2763 371.793)" fill="#F1F1F5"/>
<rect x="212.724" y="3.00006" width="3.85246" height="3.85246" transform="rotate(45 212.724 3.00006)" fill="#F1F1F5"/>
<rect x="342.724" y="60.0001" width="3.85246" height="3.85246" transform="rotate(45 342.724 60.0001)" fill="#F1F1F5"/>
<rect x="356.724" y="92.0001" width="3.85246" height="3.85246" transform="rotate(45 356.724 92.0001)" fill="#F1F1F5"/>
<rect x="214.724" y="110" width="3.85246" height="3.85246" transform="rotate(45 214.724 110)" fill="#F1F1F5"/>
<rect x="335.448" y="15.0001" width="10.5334" height="10.5334" transform="rotate(45 335.448 15.0001)" fill="#F1F1F5"/>
<rect x="14.5517" y="365.793" width="10.5334" height="10.5334" transform="rotate(-135 14.5517 365.793)" fill="#F1F1F5"/>
<circle cx="253.5" cy="78.5001" r="4.5" fill="#F1F1F5"/>
<circle cx="193.5" cy="359.293" r="4.5" transform="rotate(-180 193.5 359.293)" fill="#F1F1F5"/>
<circle cx="346.5" cy="83.5001" r="2.5" fill="#F1F1F5"/>
<circle cx="227.5" cy="127.5" r="2.5" fill="#F1F1F5"/>
<circle cx="222.5" cy="18.5001" r="2.5" fill="#F1F1F5"/>
<circle cx="162.5" cy="128.5" r="2.5" fill="#F1F1F5"/>
<circle cx="320" cy="46.0001" r="6" fill="#F1F1F5"/>
<circle cx="29.9999" cy="334.793" r="6" transform="rotate(-180 29.9999 334.793)" fill="#F1F1F5"/>
<circle cx="274" cy="9.00006" r="6" fill="#F1F1F5"/>
<circle cx="75.9999" cy="371.793" r="6" transform="rotate(-180 75.9999 371.793)" fill="#F1F1F5"/>
<circle cx="271.5" cy="169.5" r="3.5" fill="#F1F1F5"/>
<circle cx="356.5" cy="197.5" r="3.5" fill="#F1F1F5"/>
<circle cx="328.5" cy="133.5" r="3.5" fill="#F1F1F5"/>
<circle cx="208.5" cy="100.5" r="3.5" fill="#F1F1F5"/>
<circle cx="71.5" cy="8.5" r="3.5" fill="#F1F1F5"/>
<rect x="40" y="151" width="295" height="5" rx="2.5" fill="#E2E2EA"/>
<rect x="40" y="151" width="192" height="5" rx="2.5" fill="#0062FF"/>
<path d="M40.272 197.8L44.384 203.976V209H45.6V203.976L49.648 197.8H48.224L45.008 202.76L41.744 197.8H40.272ZM52.4983 201.064C50.2423 201.064 48.4823 202.824 48.4823 205.112C48.4823 207.4 50.2423 209.16 52.4983 209.16C54.7543 209.16 56.5303 207.4 56.5303 205.112C56.5303 202.824 54.7543 201.064 52.4983 201.064ZM52.4983 202.168C54.1143 202.168 55.3783 203.448 55.3783 205.112C55.3783 206.76 54.1143 208.056 52.4983 208.056C50.8823 208.056 49.6343 206.76 49.6343 205.112C49.6343 203.448 50.8823 202.168 52.4983 202.168ZM64.1456 201.224V206.632C63.6656 207.48 62.6896 208.024 61.6656 208.024C60.3056 208.024 59.3936 207.048 59.3936 205.544V201.224H58.2256V205.704C58.2256 207.784 59.5056 209.16 61.4256 209.16C62.5616 209.16 63.6496 208.616 64.1456 207.784V209H65.3136V201.224H64.1456ZM75.1411 201.064C74.0051 201.064 72.9331 201.592 72.4211 202.44V197.8H71.2531V209H72.4211V203.576C72.9011 202.728 73.8771 202.2 74.9011 202.2C76.2611 202.2 77.1731 203.176 77.1731 204.68V209H78.3411V204.52C78.3411 202.424 77.0611 201.064 75.1411 201.064ZM86.6452 201.224V202.44C86.2132 201.656 85.0612 201.064 83.9252 201.064C81.7172 201.064 80.0372 202.808 80.0372 205.096C80.0372 207.4 81.7172 209.16 83.9252 209.16C85.0452 209.16 86.1972 208.568 86.6452 207.784V209H87.8132V201.224H86.6452ZM84.1172 208.056C82.4532 208.056 81.1892 206.792 81.1892 205.096C81.1892 203.4 82.4532 202.152 84.1172 202.152C85.1572 202.152 86.1972 202.744 86.6452 203.592V206.648C86.1812 207.464 85.1412 208.056 84.1172 208.056ZM96.7841 201.224H95.5041L92.9601 207.528L90.3841 201.224H89.1201L92.4481 209H93.4721L96.7841 201.224ZM104.916 204.76C104.916 202.68 103.3 201.064 101.204 201.064C98.9962 201.064 97.2522 202.824 97.2522 205.064C97.2522 207.416 99.0282 209.16 101.22 209.16C102.804 209.16 104.116 208.488 104.708 207.416L103.78 206.824C103.332 207.624 102.372 208.104 101.252 208.104C99.6842 208.104 98.5162 207 98.4042 205.32H104.884C104.9 205.176 104.916 204.904 104.916 204.76ZM98.4522 204.328C98.7242 202.984 99.7802 202.12 101.156 202.12C102.548 202.12 103.588 203.064 103.716 204.328H98.4522ZM114.288 201.064C113.168 201.064 112.016 201.656 111.552 202.424V201.224H110.384V211.944H111.552V207.784C112 208.568 113.152 209.16 114.288 209.16C116.48 209.16 118.16 207.4 118.16 205.112C118.16 202.808 116.48 201.064 114.288 201.064ZM114.08 208.056C113.04 208.056 112 207.464 111.552 206.632V203.576C112.016 202.744 113.056 202.152 114.08 202.152C115.744 202.152 117.008 203.416 117.008 205.112C117.008 206.808 115.744 208.056 114.08 208.056ZM125.776 201.224V202.44C125.344 201.656 124.192 201.064 123.056 201.064C120.848 201.064 119.168 202.808 119.168 205.096C119.168 207.4 120.848 209.16 123.056 209.16C124.176 209.16 125.328 208.568 125.776 207.784V209H126.944V201.224H125.776ZM123.248 208.056C121.584 208.056 120.32 206.792 120.32 205.096C120.32 203.4 121.584 202.152 123.248 202.152C124.288 202.152 125.328 202.744 125.776 203.592V206.648C125.312 207.464 124.272 208.056 123.248 208.056ZM129.691 197.832C129.227 197.832 128.859 198.216 128.859 198.664C128.859 199.128 129.227 199.512 129.691 199.512C130.139 199.512 130.539 199.128 130.539 198.664C130.539 198.216 130.139 197.832 129.691 197.832ZM129.099 201.224V209H130.267V201.224H129.099ZM138.57 197.8V202.44C138.138 201.656 136.986 201.064 135.85 201.064C133.642 201.064 131.962 202.808 131.962 205.096C131.962 207.4 133.642 209.16 135.85 209.16C136.97 209.16 138.122 208.568 138.57 207.784V209H139.738V197.8H138.57ZM136.042 208.056C134.378 208.056 133.114 206.792 133.114 205.096C133.114 203.4 134.378 202.152 136.042 202.152C137.082 202.152 138.122 202.744 138.57 203.592V206.648C138.106 207.464 137.066 208.056 136.042 208.056ZM148.968 201.064C148.168 201.064 147.272 201.608 146.84 202.456V201.224H145.672V209H146.84V203.64C147.336 202.696 148.2 202.136 148.888 202.136C149.16 202.136 149.48 202.184 149.72 202.28L149.784 201.176C149.576 201.112 149.288 201.064 148.968 201.064ZM157.761 204.76C157.761 202.68 156.145 201.064 154.049 201.064C151.841 201.064 150.097 202.824 150.097 205.064C150.097 207.416 151.873 209.16 154.065 209.16C155.649 209.16 156.961 208.488 157.553 207.416L156.625 206.824C156.177 207.624 155.217 208.104 154.097 208.104C152.529 208.104 151.361 207 151.249 205.32H157.729C157.745 205.176 157.761 204.904 157.761 204.76ZM151.297 204.328C151.569 202.984 152.625 202.12 154.001 202.12C155.393 202.12 156.433 203.064 156.561 204.328H151.297ZM163.337 201.064C162.201 201.064 161.129 201.592 160.617 202.44V201.224H159.449V209H160.617V203.576C161.097 202.728 162.073 202.2 163.097 202.2C164.457 202.2 165.369 203.176 165.369 204.68V209H166.537V204.52C166.537 202.424 165.273 201.064 163.337 201.064ZM172.26 207.928C172.116 207.976 171.908 208.008 171.748 208.008C170.804 208.008 170.068 207.368 170.068 206.232V202.312H172.26V201.224H170.068V199.08H168.916V201.224H167.364V202.312H168.916V206.28C168.916 208.072 170.036 209.08 171.604 209.08C171.86 209.08 172.132 209.032 172.34 208.952L172.26 207.928ZM179.511 201.224V202.44C179.079 201.656 177.927 201.064 176.791 201.064C174.583 201.064 172.903 202.808 172.903 205.096C172.903 207.4 174.583 209.16 176.791 209.16C177.911 209.16 179.063 208.568 179.511 207.784V209H180.679V201.224H179.511ZM176.983 208.056C175.319 208.056 174.055 206.792 174.055 205.096C174.055 203.4 175.319 202.152 176.983 202.152C178.023 202.152 179.063 202.744 179.511 203.592V206.648C179.047 207.464 178.007 208.056 176.983 208.056ZM184.002 197.8H182.834V209H184.002V197.8ZM193.428 198.6C193.588 198.6 193.796 198.632 193.94 198.68L194.02 197.656C193.812 197.576 193.54 197.528 193.284 197.528C191.716 197.528 190.596 198.552 190.596 200.344V201.224H189.044V202.312H190.596V209H191.748V202.312H193.94V201.224H191.748V200.376C191.748 199.256 192.484 198.6 193.428 198.6ZM201.873 204.76C201.873 202.68 200.257 201.064 198.161 201.064C195.953 201.064 194.209 202.824 194.209 205.064C194.209 207.416 195.985 209.16 198.177 209.16C199.761 209.16 201.073 208.488 201.665 207.416L200.737 206.824C200.289 207.624 199.329 208.104 198.209 208.104C196.641 208.104 195.473 207 195.361 205.32H201.841C201.857 205.176 201.873 204.904 201.873 204.76ZM195.409 204.328C195.681 202.984 196.737 202.12 198.113 202.12C199.505 202.12 200.545 203.064 200.673 204.328H195.409ZM210.543 204.76C210.543 202.68 208.927 201.064 206.831 201.064C204.623 201.064 202.879 202.824 202.879 205.064C202.879 207.416 204.655 209.16 206.847 209.16C208.431 209.16 209.743 208.488 210.335 207.416L209.407 206.824C208.959 207.624 207.999 208.104 206.879 208.104C205.311 208.104 204.143 207 204.031 205.32H210.511C210.527 205.176 210.543 204.904 210.543 204.76ZM204.079 204.328C204.351 202.984 205.407 202.12 206.783 202.12C208.175 202.12 209.215 203.064 209.343 204.328H204.079ZM219.499 198.6C219.659 198.6 219.867 198.632 220.011 198.68L220.091 197.656C219.883 197.576 219.611 197.528 219.355 197.528C217.787 197.528 216.667 198.552 216.667 200.344V201.224H215.115V202.312H216.667V209H217.819V202.312H220.011V201.224H217.819V200.376C217.819 199.256 218.555 198.6 219.499 198.6ZM224.295 201.064C222.039 201.064 220.279 202.824 220.279 205.112C220.279 207.4 222.039 209.16 224.295 209.16C226.551 209.16 228.327 207.4 228.327 205.112C228.327 202.824 226.551 201.064 224.295 201.064ZM224.295 202.168C225.911 202.168 227.175 203.448 227.175 205.112C227.175 206.76 225.911 208.056 224.295 208.056C222.679 208.056 221.431 206.76 221.431 205.112C221.431 203.448 222.679 202.168 224.295 202.168ZM233.318 201.064C232.518 201.064 231.622 201.608 231.19 202.456V201.224H230.022V209H231.19V203.64C231.686 202.696 232.55 202.136 233.238 202.136C233.51 202.136 233.83 202.184 234.07 202.28L234.134 201.176C233.926 201.112 233.638 201.064 233.318 201.064ZM246.627 205.912C246.627 201.896 240.323 203.576 240.323 200.552C240.323 199.528 241.299 198.808 242.627 198.808C243.763 198.808 244.867 199.272 245.507 200.008L246.243 199.08C245.651 198.36 244.499 197.816 243.299 197.672V195.88H242.179V197.672C240.371 197.864 239.107 199.064 239.107 200.632C239.107 204.76 245.379 203.032 245.379 205.928C245.379 207.144 244.307 207.992 242.803 207.992C241.379 207.992 240.291 207.384 239.411 206.6L238.643 207.512C239.507 208.328 240.755 208.968 242.179 209.128V210.92H243.299V209.144C245.331 208.952 246.627 207.576 246.627 205.912ZM251.285 197.8H250.405L247.493 200.184V201.672L250.069 199.464V209H251.285V197.8ZM255.073 207.448H253.761L253.073 210.696H254.001L255.073 207.448ZM256.628 209H264.004V207.832H258.516L261.796 204.536C263.076 203.304 263.86 202.088 263.86 200.872C263.86 198.984 262.372 197.64 260.388 197.64C258.308 197.64 256.708 199.08 256.66 201.176L257.844 201.256C257.908 199.752 258.9 198.808 260.372 198.808C261.684 198.808 262.628 199.688 262.628 200.904C262.628 201.784 262.052 202.664 260.932 203.8L256.628 208.104V209ZM269.253 209.16C271.781 209.16 273.285 206.952 273.285 203.4C273.285 199.848 271.781 197.64 269.253 197.64C266.709 197.64 265.205 199.848 265.205 203.4C265.205 206.952 266.709 209.16 269.253 209.16ZM269.253 207.992C267.477 207.992 266.453 206.36 266.453 203.4C266.453 200.44 267.477 198.808 269.253 198.808C271.013 198.808 272.053 200.44 272.053 203.4C272.053 206.36 271.013 207.992 269.253 207.992ZM278.72 209.16C281.248 209.16 282.752 206.952 282.752 203.4C282.752 199.848 281.248 197.64 278.72 197.64C276.176 197.64 274.672 199.848 274.672 203.4C274.672 206.952 276.176 209.16 278.72 209.16ZM278.72 207.992C276.944 207.992 275.92 206.36 275.92 203.4C275.92 200.44 276.944 198.808 278.72 198.808C280.48 198.808 281.52 200.44 281.52 203.4C281.52 206.36 280.48 207.992 278.72 207.992ZM285.259 209.16C285.803 209.16 286.203 208.76 286.203 208.232C286.203 207.72 285.803 207.304 285.259 207.304C284.731 207.304 284.331 207.72 284.331 208.232C284.331 208.76 284.731 209.16 285.259 209.16ZM45.568 221.8H41.264V233H42.464V228.248H45.568C47.456 228.248 48.88 226.856 48.88 225.016C48.88 223.192 47.456 221.8 45.568 221.8ZM45.568 227.096H42.464V222.952H45.568C46.752 222.952 47.664 223.848 47.664 225.016C47.664 226.184 46.752 227.096 45.568 227.096ZM55.9965 225.224V226.44C55.5645 225.656 54.4125 225.064 53.2765 225.064C51.0685 225.064 49.3885 226.808 49.3885 229.096C49.3885 231.4 51.0685 233.16 53.2765 233.16C54.3965 233.16 55.5485 232.568 55.9965 231.784V233H57.1645V225.224H55.9965ZM53.4685 232.056C51.8045 232.056 50.5405 230.792 50.5405 229.096C50.5405 227.4 51.8045 226.152 53.4685 226.152C54.5085 226.152 55.5485 226.744 55.9965 227.592V230.648C55.5325 231.464 54.4925 232.056 53.4685 232.056ZM64.8394 225.224L62.2794 231.496L59.7354 225.224H58.4714L61.6874 232.856L60.3434 235.944H61.5914L66.0874 225.224H64.8394ZM80.2626 225.064C79.0146 225.064 78.0386 225.816 77.4946 226.552C76.9986 225.56 76.1186 225.064 74.9026 225.064C73.5586 225.064 72.7426 225.832 72.3586 226.392V225.224H71.1906V233H72.3586V227.48C72.7746 226.696 73.5906 226.136 74.5666 226.136C75.8786 226.136 76.7266 227.048 76.7266 228.52V233H77.8946V228.216C77.8786 227.96 77.8466 227.736 77.7986 227.512C78.2466 226.76 79.1586 226.136 80.0866 226.136C81.4306 226.136 82.2626 227.048 82.2626 228.52V233H83.4306V228.344C83.4306 226.328 82.1666 225.064 80.2626 225.064ZM89.147 225.064C86.891 225.064 85.131 226.824 85.131 229.112C85.131 231.4 86.891 233.16 89.147 233.16C91.403 233.16 93.179 231.4 93.179 229.112C93.179 226.824 91.403 225.064 89.147 225.064ZM89.147 226.168C90.763 226.168 92.027 227.448 92.027 229.112C92.027 230.76 90.763 232.056 89.147 232.056C87.531 232.056 86.283 230.76 86.283 229.112C86.283 227.448 87.531 226.168 89.147 226.168ZM98.1704 225.064C97.3704 225.064 96.4744 225.608 96.0424 226.456V225.224H94.8744V233H96.0424V227.64C96.5384 226.696 97.4024 226.136 98.0904 226.136C98.3624 226.136 98.6824 226.184 98.9224 226.28L98.9864 225.176C98.7784 225.112 98.4904 225.064 98.1704 225.064ZM106.963 228.76C106.963 226.68 105.347 225.064 103.251 225.064C101.043 225.064 99.2991 226.824 99.2991 229.064C99.2991 231.416 101.075 233.16 103.267 233.16C104.851 233.16 106.163 232.488 106.755 231.416L105.827 230.824C105.379 231.624 104.419 232.104 103.299 232.104C101.731 232.104 100.563 231 100.451 229.32H106.931C106.947 229.176 106.963 228.904 106.963 228.76ZM100.499 228.328C100.771 226.984 101.827 226.12 103.203 226.12C104.595 226.12 105.635 227.064 105.763 228.328H100.499ZM119.727 229.912C119.727 225.896 113.423 227.576 113.423 224.552C113.423 223.528 114.399 222.808 115.727 222.808C116.863 222.808 117.967 223.272 118.607 224.008L119.343 223.08C118.751 222.36 117.599 221.816 116.399 221.672V219.88H115.279V221.672C113.471 221.864 112.207 223.064 112.207 224.632C112.207 228.76 118.479 227.032 118.479 229.928C118.479 231.144 117.407 231.992 115.903 231.992C114.479 231.992 113.391 231.384 112.511 230.6L111.743 231.512C112.607 232.328 113.855 232.968 115.279 233.128V234.92H116.399V233.144C118.431 232.952 119.727 231.576 119.727 229.912ZM124.581 233.144C126.725 233.144 128.277 231.768 128.277 229.88C128.277 228.536 127.349 227.352 126.021 226.968C127.077 226.616 127.829 225.608 127.829 224.536C127.829 222.872 126.469 221.672 124.581 221.672C122.693 221.672 121.333 222.872 121.333 224.536C121.333 225.608 122.085 226.616 123.141 226.968C121.813 227.352 120.885 228.536 120.885 229.88C120.885 231.768 122.437 233.144 124.581 233.144ZM124.581 226.408C123.365 226.408 122.501 225.656 122.501 224.584C122.501 223.528 123.365 222.76 124.581 222.76C125.797 222.76 126.661 223.528 126.661 224.584C126.661 225.656 125.797 226.408 124.581 226.408ZM124.581 232.024C123.125 232.024 122.069 231.08 122.069 229.8C122.069 228.536 123.125 227.608 124.581 227.608C126.037 227.608 127.093 228.536 127.093 229.8C127.093 231.08 126.037 232.024 124.581 232.024ZM133.545 233.16C136.073 233.16 137.577 230.952 137.577 227.4C137.577 223.848 136.073 221.64 133.545 221.64C131.001 221.64 129.497 223.848 129.497 227.4C129.497 230.952 131.001 233.16 133.545 233.16ZM133.545 231.992C131.769 231.992 130.745 230.36 130.745 227.4C130.745 224.44 131.769 222.808 133.545 222.808C135.305 222.808 136.345 224.44 136.345 227.4C136.345 230.36 135.305 231.992 133.545 231.992ZM143.012 233.16C145.54 233.16 147.044 230.952 147.044 227.4C147.044 223.848 145.54 221.64 143.012 221.64C140.468 221.64 138.964 223.848 138.964 227.4C138.964 230.952 140.468 233.16 143.012 233.16ZM143.012 231.992C141.236 231.992 140.212 230.36 140.212 227.4C140.212 224.44 141.236 222.808 143.012 222.808C144.772 222.808 145.812 224.44 145.812 227.4C145.812 230.36 144.772 231.992 143.012 231.992ZM156.594 231.928C156.45 231.976 156.242 232.008 156.082 232.008C155.138 232.008 154.402 231.368 154.402 230.232V226.312H156.594V225.224H154.402V223.08H153.25V225.224H151.698V226.312H153.25V230.28C153.25 232.072 154.37 233.08 155.938 233.08C156.194 233.08 156.466 233.032 156.674 232.952L156.594 231.928ZM161.253 225.064C158.997 225.064 157.237 226.824 157.237 229.112C157.237 231.4 158.997 233.16 161.253 233.16C163.509 233.16 165.285 231.4 165.285 229.112C165.285 226.824 163.509 225.064 161.253 225.064ZM161.253 226.168C162.869 226.168 164.133 227.448 164.133 229.112C164.133 230.76 162.869 232.056 161.253 232.056C159.637 232.056 158.389 230.76 158.389 229.112C158.389 227.448 159.637 226.168 161.253 226.168ZM176.904 225.224V226.44C176.472 225.656 175.32 225.064 174.184 225.064C171.976 225.064 170.296 226.808 170.296 229.096C170.296 231.4 171.976 233.16 174.184 233.16C175.304 233.16 176.456 232.568 176.904 231.784V233H178.072V225.224H176.904ZM174.376 232.056C172.712 232.056 171.448 230.792 171.448 229.096C171.448 227.4 172.712 226.152 174.376 226.152C175.416 226.152 176.456 226.744 176.904 227.592V230.648C176.44 231.464 175.4 232.056 174.376 232.056ZM187.283 231.16L186.275 230.68C185.827 231.544 184.899 232.056 183.795 232.056C182.163 232.056 180.915 230.76 180.915 229.112C180.915 227.448 182.147 226.168 183.795 226.168C184.835 226.168 185.731 226.68 186.067 227.464L187.059 226.936C186.547 225.8 185.283 225.064 183.795 225.064C181.523 225.064 179.763 226.824 179.763 229.112C179.763 231.4 181.539 233.16 183.795 233.16C185.363 233.16 186.675 232.376 187.283 231.16ZM192.488 225.064C191.352 225.064 190.28 225.592 189.768 226.44V221.8H188.6V233H189.768V227.576C190.248 226.728 191.224 226.2 192.248 226.2C193.608 226.2 194.52 227.176 194.52 228.68V233H195.688V228.52C195.688 226.424 194.408 225.064 192.488 225.064ZM198.44 221.832C197.976 221.832 197.608 222.216 197.608 222.664C197.608 223.128 197.976 223.512 198.44 223.512C198.888 223.512 199.288 223.128 199.288 222.664C199.288 222.216 198.888 221.832 198.44 221.832ZM197.848 225.224V233H199.016V225.224H197.848ZM208.374 228.76C208.374 226.68 206.758 225.064 204.662 225.064C202.454 225.064 200.71 226.824 200.71 229.064C200.71 231.416 202.486 233.16 204.678 233.16C206.262 233.16 207.574 232.488 208.166 231.416L207.238 230.824C206.79 231.624 205.83 232.104 204.71 232.104C203.142 232.104 201.974 231 201.862 229.32H208.342C208.358 229.176 208.374 228.904 208.374 228.76ZM201.91 228.328C202.182 226.984 203.238 226.12 204.614 226.12C206.006 226.12 207.046 227.064 207.174 228.328H201.91ZM216.504 225.224H215.224L212.68 231.528L210.104 225.224H208.84L212.168 233H213.192L216.504 225.224ZM224.636 228.76C224.636 226.68 223.02 225.064 220.924 225.064C218.716 225.064 216.972 226.824 216.972 229.064C216.972 231.416 218.748 233.16 220.94 233.16C222.524 233.16 223.836 232.488 224.428 231.416L223.5 230.824C223.052 231.624 222.092 232.104 220.972 232.104C219.404 232.104 218.236 231 218.124 229.32H224.604C224.62 229.176 224.636 228.904 224.636 228.76ZM218.172 228.328C218.444 226.984 219.5 226.12 220.876 226.12C222.268 226.12 223.308 227.064 223.436 228.328H218.172ZM235.688 228.12H238.68V230.808C237.864 231.544 236.792 231.992 235.384 231.992C232.856 231.992 231.016 230.024 231.016 227.352C231.016 224.696 232.84 222.808 235.384 222.808C236.968 222.808 238.36 223.592 238.936 224.792L240.008 224.264C239.352 222.696 237.48 221.64 235.384 221.64C232.168 221.64 229.768 224.056 229.768 227.352C229.768 230.648 232.184 233.16 235.384 233.16C237.32 233.16 238.872 232.424 239.896 231.192V226.968H235.688V228.12ZM245.639 225.064C243.383 225.064 241.623 226.824 241.623 229.112C241.623 231.4 243.383 233.16 245.639 233.16C247.895 233.16 249.671 231.4 249.671 229.112C249.671 226.824 247.895 225.064 245.639 225.064ZM245.639 226.168C247.255 226.168 248.519 227.448 248.519 229.112C248.519 230.76 247.255 232.056 245.639 232.056C244.023 232.056 242.775 230.76 242.775 229.112C242.775 227.448 244.023 226.168 245.639 226.168ZM252.534 221.8H251.366V233H252.534V221.8ZM260.618 221.8V226.44C260.186 225.656 259.034 225.064 257.898 225.064C255.69 225.064 254.01 226.808 254.01 229.096C254.01 231.4 255.69 233.16 257.898 233.16C259.018 233.16 260.17 232.568 260.618 231.784V233H261.786V221.8H260.618ZM258.09 232.056C256.426 232.056 255.162 230.792 255.162 229.096C255.162 227.4 256.426 226.152 258.09 226.152C259.13 226.152 260.17 226.744 260.618 227.592V230.648C260.154 231.464 259.114 232.056 258.09 232.056ZM275.593 221.8H267.033V222.952H270.713V233H271.913V222.952H275.593V221.8ZM277.232 221.832C276.768 221.832 276.4 222.216 276.4 222.664C276.4 223.128 276.768 223.512 277.232 223.512C277.68 223.512 278.08 223.128 278.08 222.664C278.08 222.216 277.68 221.832 277.232 221.832ZM276.64 225.224V233H277.808V225.224H276.64ZM287.166 228.76C287.166 226.68 285.55 225.064 283.454 225.064C281.246 225.064 279.502 226.824 279.502 229.064C279.502 231.416 281.278 233.16 283.47 233.16C285.054 233.16 286.366 232.488 286.958 231.416L286.03 230.824C285.582 231.624 284.622 232.104 283.502 232.104C281.934 232.104 280.766 231 280.654 229.32H287.134C287.15 229.176 287.166 228.904 287.166 228.76ZM280.702 228.328C280.974 226.984 282.03 226.12 283.406 226.12C284.798 226.12 285.838 227.064 285.966 228.328H280.702ZM292.151 225.064C291.351 225.064 290.455 225.608 290.023 226.456V225.224H288.855V233H290.023V227.64C290.519 226.696 291.383 226.136 292.071 226.136C292.343 226.136 292.663 226.184 292.903 226.28L292.967 225.176C292.759 225.112 292.471 225.064 292.151 225.064ZM294.167 233.16C294.711 233.16 295.111 232.76 295.111 232.232C295.111 231.72 294.711 231.304 294.167 231.304C293.639 231.304 293.239 231.72 293.239 232.232C293.239 232.76 293.639 233.16 294.167 233.16Z" fill="#92929D"/>
<path d="M47.532 48H49.31L45.404 38.2H44.032L40.126 48H41.862L42.632 46.04H46.776L47.532 48ZM43.234 44.472L44.704 40.72L46.16 44.472H43.234ZM55.8926 41.154H54.1846L52.3506 45.914L50.5026 41.154H48.8086L51.6786 48H53.0226L55.8926 41.154ZM61.5906 41.154V42.078C61.2266 41.462 60.3166 41.014 59.4066 41.014C57.5586 41.014 56.1166 42.582 56.1166 44.57C56.1166 46.572 57.5586 48.14 59.4066 48.14C60.3166 48.14 61.2266 47.692 61.5906 47.076V48H63.1446V41.154H61.5906ZM59.7286 46.656C58.5526 46.656 57.6566 45.76 57.6566 44.57C57.6566 43.38 58.5526 42.498 59.7286 42.498C60.5126 42.498 61.2546 42.932 61.5906 43.534V45.634C61.2546 46.222 60.4986 46.656 59.7286 46.656ZM65.5768 37.976C65.0308 37.976 64.5828 38.438 64.5828 38.97C64.5828 39.53 65.0308 39.978 65.5768 39.978C66.1228 39.978 66.5848 39.53 66.5848 38.97C66.5848 38.438 66.1228 37.976 65.5768 37.976ZM64.7928 41.154V48H66.3468V41.154H64.7928ZM69.628 38.2H68.074V48H69.628V38.2ZM76.2742 41.154V42.078C75.9102 41.462 75.0002 41.014 74.0902 41.014C72.2422 41.014 70.8002 42.582 70.8002 44.57C70.8002 46.572 72.2422 48.14 74.0902 48.14C75.0002 48.14 75.9102 47.692 76.2742 47.076V48H77.8282V41.154H76.2742ZM74.4122 46.656C73.2362 46.656 72.3402 45.76 72.3402 44.57C72.3402 43.38 73.2362 42.498 74.4122 42.498C75.1962 42.498 75.9382 42.932 76.2742 43.534V45.634C75.9382 46.222 75.1822 46.656 74.4122 46.656ZM83.2144 41.014C82.3044 41.014 81.3944 41.462 81.0304 42.078V38.2H79.4764V48H81.0304V47.076C81.3944 47.692 82.3044 48.14 83.2144 48.14C85.0624 48.14 86.5044 46.572 86.5044 44.57C86.5044 42.582 85.0624 41.014 83.2144 41.014ZM82.8924 46.656C82.1224 46.656 81.3664 46.222 81.0304 45.634V43.534C81.3664 42.932 82.1084 42.498 82.8924 42.498C84.0684 42.498 84.9644 43.38 84.9644 44.57C84.9644 45.76 84.0684 46.656 82.8924 46.656ZM89.3566 38.2H87.8026V48H89.3566V38.2ZM97.3467 44.276C97.3467 42.442 95.9047 41.014 94.0567 41.014C92.0827 41.014 90.5287 42.554 90.5287 44.542C90.5287 46.586 92.1107 48.14 94.0847 48.14C95.4987 48.14 96.6467 47.58 97.1507 46.656L95.9047 45.858C95.5827 46.39 94.8827 46.726 94.1127 46.726C93.0067 46.726 92.2507 46.054 92.0827 44.948H97.2907C97.3327 44.738 97.3467 44.458 97.3467 44.276ZM92.1387 43.758C92.3767 42.862 93.0347 42.302 93.9727 42.302C94.9107 42.302 95.6247 42.904 95.7087 43.758H92.1387ZM110.625 45.494L109.141 44.822C108.763 45.872 107.699 46.544 106.383 46.544C104.479 46.544 103.149 45.06 103.149 43.086C103.149 41.112 104.479 39.656 106.383 39.656C107.615 39.656 108.637 40.272 109.057 41.21L110.527 40.496C109.995 39.054 108.315 38.06 106.383 38.06C103.555 38.06 101.455 40.244 101.455 43.086C101.455 45.942 103.555 48.14 106.383 48.14C108.385 48.14 110.121 47.062 110.625 45.494ZM114.989 41.014C112.987 41.014 111.447 42.554 111.447 44.584C111.447 46.614 112.987 48.14 114.989 48.14C116.991 48.14 118.545 46.614 118.545 44.584C118.545 42.554 116.991 41.014 114.989 41.014ZM114.989 42.512C116.123 42.512 117.005 43.408 117.005 44.584C117.005 45.746 116.123 46.642 114.989 46.642C113.855 46.642 112.987 45.746 112.987 44.584C112.987 43.408 113.855 42.512 114.989 42.512ZM120.633 37.976C120.087 37.976 119.639 38.438 119.639 38.97C119.639 39.53 120.087 39.978 120.633 39.978C121.179 39.978 121.641 39.53 121.641 38.97C121.641 38.438 121.179 37.976 120.633 37.976ZM119.849 41.154V48H121.403V41.154H119.849ZM126.703 41.014C125.835 41.014 125.023 41.42 124.603 42.078V41.154H123.049V48H124.603V43.52C124.953 42.932 125.625 42.568 126.325 42.568C127.291 42.568 127.935 43.24 127.935 44.346V48H129.503V44.094C129.503 42.204 128.411 41.014 126.703 41.014ZM137.957 41.014C137.047 41.014 136.137 41.462 135.773 42.078V38.2H134.219V48H135.773V47.076C136.137 47.692 137.047 48.14 137.957 48.14C139.805 48.14 141.247 46.572 141.247 44.57C141.247 42.582 139.805 41.014 137.957 41.014ZM137.635 46.656C136.865 46.656 136.109 46.222 135.773 45.634V43.534C136.109 42.932 136.851 42.498 137.635 42.498C138.811 42.498 139.707 43.38 139.707 44.57C139.707 45.76 138.811 46.656 137.635 46.656ZM147.546 41.154V42.078C147.182 41.462 146.272 41.014 145.362 41.014C143.514 41.014 142.072 42.582 142.072 44.57C142.072 46.572 143.514 48.14 145.362 48.14C146.272 48.14 147.182 47.692 147.546 47.076V48H149.1V41.154H147.546ZM145.684 46.656C144.508 46.656 143.612 45.76 143.612 44.57C143.612 43.38 144.508 42.498 145.684 42.498C146.468 42.498 147.21 42.932 147.546 43.534V45.634C147.21 46.222 146.454 46.656 145.684 46.656ZM152.302 38.2H150.748V48H152.302V38.2ZM158.948 41.154V42.078C158.584 41.462 157.674 41.014 156.764 41.014C154.916 41.014 153.474 42.582 153.474 44.57C153.474 46.572 154.916 48.14 156.764 48.14C157.674 48.14 158.584 47.692 158.948 47.076V48H160.502V41.154H158.948ZM157.086 46.656C155.91 46.656 155.014 45.76 155.014 44.57C155.014 43.38 155.91 42.498 157.086 42.498C157.87 42.498 158.612 42.932 158.948 43.534V45.634C158.612 46.222 157.856 46.656 157.086 46.656ZM165.804 41.014C164.936 41.014 164.124 41.42 163.704 42.078V41.154H162.15V48H163.704V43.52C164.054 42.932 164.726 42.568 165.426 42.568C166.392 42.568 167.036 43.24 167.036 44.346V48H168.604V44.094C168.604 42.204 167.512 41.014 165.804 41.014ZM176.628 46.264L175.242 45.634C174.934 46.264 174.276 46.642 173.478 46.642C172.302 46.642 171.434 45.746 171.434 44.584C171.434 43.408 172.288 42.512 173.464 42.512C174.206 42.512 174.822 42.876 175.102 43.422L176.418 42.68C175.914 41.672 174.794 41.014 173.464 41.014C171.434 41.014 169.894 42.554 169.894 44.584C169.894 46.614 171.448 48.14 173.478 48.14C174.906 48.14 176.11 47.398 176.628 46.264ZM183.944 44.276C183.944 42.442 182.502 41.014 180.654 41.014C178.68 41.014 177.126 42.554 177.126 44.542C177.126 46.586 178.708 48.14 180.682 48.14C182.096 48.14 183.244 47.58 183.748 46.656L182.502 45.858C182.18 46.39 181.48 46.726 180.71 46.726C179.604 46.726 178.848 46.054 178.68 44.948H183.888C183.93 44.738 183.944 44.458 183.944 44.276ZM178.736 43.758C178.974 42.862 179.632 42.302 180.57 42.302C181.508 42.302 182.222 42.904 182.306 43.758H178.736Z" fill="#B5B5BE"/>
<path d="M48.16 90.848L49.36 93.248C54.88 91.472 60.016 94.16 60.016 99.44C60.016 103.856 56.8 106.976 52.336 106.976C48.4 106.976 44.992 104.432 44.128 100.88L40.912 102.032C41.968 106.976 46.72 110.48 52.336 110.48C58.96 110.48 63.76 105.92 63.76 99.536C63.76 93.488 58.768 89.312 52.768 90.176L63.136 78.944V76.4H41.968V79.856H58L48.16 90.848ZM91.3944 99.152H86.8344V87.632H83.2344V99.152H70.6584L82.6584 76.4H78.5784L66.1944 99.824V102.464H83.2344V110H86.8344V102.464H91.3944V99.152ZM106.602 110.48C114.186 110.48 118.698 103.856 118.698 93.2C118.698 82.544 114.186 75.92 106.602 75.92C98.97 75.92 94.458 82.544 94.458 93.2C94.458 103.856 98.97 110.48 106.602 110.48ZM106.602 106.976C101.274 106.976 98.202 102.08 98.202 93.2C98.202 84.32 101.274 79.424 106.602 79.424C111.882 79.424 115.002 84.32 115.002 93.2C115.002 102.08 111.882 106.976 106.602 106.976Z" fill="#171725"/>
<path d="M40 306C40 303.791 41.7909 302 44 302H331C333.209 302 335 303.791 335 306V358C335 360.209 333.209 362 331 362H44C41.7909 362 40 360.209 40 358V306Z" fill="#171725"/>
<path d="M137.5 340H139.606V331.54L143.296 340H144.844L148.606 331.54V340H150.712V327.4H148.552L144.232 336.904L140.038 327.4H137.5V340ZM158.961 331.198L156.603 337.192L154.245 331.198H152.085L155.577 339.532L153.993 343.096H156.153L161.121 331.198H158.961ZM177.809 336.778L175.901 335.914C175.415 337.264 174.047 338.128 172.355 338.128C169.907 338.128 168.197 336.22 168.197 333.682C168.197 331.144 169.907 329.272 172.355 329.272C173.939 329.272 175.253 330.064 175.793 331.27L177.683 330.352C176.999 328.498 174.839 327.22 172.355 327.22C168.719 327.22 166.019 330.028 166.019 333.682C166.019 337.354 168.719 340.18 172.355 340.18C174.929 340.18 177.161 338.794 177.809 336.778ZM183.42 331.018C180.846 331.018 178.866 332.998 178.866 335.608C178.866 338.218 180.846 340.18 183.42 340.18C185.994 340.18 187.992 338.218 187.992 335.608C187.992 332.998 185.994 331.018 183.42 331.018ZM183.42 332.944C184.878 332.944 186.012 334.096 186.012 335.608C186.012 337.102 184.878 338.254 183.42 338.254C181.962 338.254 180.846 337.102 180.846 335.608C180.846 334.096 181.962 332.944 183.42 332.944ZM195.951 331.198V336.94C195.501 337.696 194.637 338.182 193.755 338.182C192.495 338.182 191.667 337.318 191.667 335.896V331.198H189.669V336.202C189.669 338.65 191.055 340.18 193.269 340.18C194.367 340.18 195.429 339.658 195.951 338.812V340H197.967V331.198H195.951ZM204.882 331.018C203.712 331.018 202.542 331.594 202.074 332.368V331.198H200.076V343.096H202.074V338.812C202.542 339.604 203.712 340.18 204.882 340.18C207.258 340.18 209.112 338.164 209.112 335.608C209.112 333.034 207.258 331.018 204.882 331.018ZM204.468 338.272C203.46 338.272 202.506 337.714 202.074 336.94V334.24C202.506 333.484 203.478 332.926 204.468 332.926C205.98 332.926 207.132 334.06 207.132 335.608C207.132 337.138 205.98 338.272 204.468 338.272ZM214.727 331.018C212.153 331.018 210.173 332.998 210.173 335.608C210.173 338.218 212.153 340.18 214.727 340.18C217.301 340.18 219.299 338.218 219.299 335.608C219.299 332.998 217.301 331.018 214.727 331.018ZM214.727 332.944C216.185 332.944 217.319 334.096 217.319 335.608C217.319 337.102 216.185 338.254 214.727 338.254C213.269 338.254 212.153 337.102 212.153 335.608C212.153 334.096 213.269 332.944 214.727 332.944ZM225.674 331.018C224.558 331.018 223.514 331.54 222.974 332.386V331.198H220.976V340H222.974V334.24C223.424 333.484 224.288 333.016 225.188 333.016C226.43 333.016 227.258 333.88 227.258 335.302V340H229.274V334.978C229.274 332.548 227.87 331.018 225.674 331.018ZM234.64 340.198C236.656 340.198 238.078 339.046 238.078 337.462C238.078 334.204 233.146 335.122 233.146 333.628C233.146 333.052 233.632 332.692 234.37 332.692C235.108 332.692 236.368 333.016 237.07 333.628L237.862 332.08C237.07 331.36 235.792 331.018 234.568 331.018C232.552 331.018 231.148 332.152 231.148 333.79C231.148 337.048 236.044 335.914 236.044 337.534C236.044 338.092 235.468 338.506 234.586 338.506C233.596 338.506 232.3 338.056 231.616 337.408L230.824 338.92C231.688 339.694 233.218 340.198 234.64 340.198Z" fill="white"/>
<path d="M40.272 261.8L44.528 273H45.584L49.824 261.8H48.544L45.056 271.16L41.568 261.8H40.272ZM51.3039 261.832C50.8399 261.832 50.4719 262.216 50.4719 262.664C50.4719 263.128 50.8399 263.512 51.3039 263.512C51.7519 263.512 52.1519 263.128 52.1519 262.664C52.1519 262.216 51.7519 261.832 51.3039 261.832ZM50.7119 265.224V273H51.8799V265.224H50.7119ZM61.2381 268.76C61.2381 266.68 59.6221 265.064 57.5261 265.064C55.3181 265.064 53.5741 266.824 53.5741 269.064C53.5741 271.416 55.3501 273.16 57.5421 273.16C59.1261 273.16 60.4381 272.488 61.0301 271.416L60.1021 270.824C59.6541 271.624 58.6941 272.104 57.5741 272.104C56.0061 272.104 54.8381 271 54.7261 269.32H61.2061C61.2221 269.176 61.2381 268.904 61.2381 268.76ZM54.7741 268.328C55.0461 266.984 56.1021 266.12 57.4781 266.12C58.8701 266.12 59.9101 267.064 60.0381 268.328H54.7741ZM64.6613 273H65.6053L67.8133 266.888L70.0213 273H70.9813L73.8293 265.224H72.5973L70.5013 271.32L68.3093 265.224H67.3173L65.1413 271.32L63.0453 265.224H61.8133L64.6613 273ZM82.9387 271.928C82.7947 271.976 82.5867 272.008 82.4267 272.008C81.4827 272.008 80.7467 271.368 80.7467 270.232V266.312H82.9387V265.224H80.7467V263.08H79.5947V265.224H78.0427V266.312H79.5947V270.28C79.5947 272.072 80.7147 273.08 82.2827 273.08C82.5387 273.08 82.8107 273.032 83.0187 272.952L82.9387 271.928ZM85.1539 261.832C84.6899 261.832 84.3219 262.216 84.3219 262.664C84.3219 263.128 84.6899 263.512 85.1539 263.512C85.6019 263.512 86.0019 263.128 86.0019 262.664C86.0019 262.216 85.6019 261.832 85.1539 261.832ZM84.5619 265.224V273H85.7299V265.224H84.5619ZM95.0881 268.76C95.0881 266.68 93.4721 265.064 91.3761 265.064C89.1681 265.064 87.4241 266.824 87.4241 269.064C87.4241 271.416 89.2001 273.16 91.3921 273.16C92.9761 273.16 94.2881 272.488 94.8801 271.416L93.9521 270.824C93.5041 271.624 92.5441 272.104 91.4241 272.104C89.8561 272.104 88.6881 271 88.5761 269.32H95.0561C95.0721 269.176 95.0881 268.904 95.0881 268.76ZM88.6241 268.328C88.8961 266.984 89.9521 266.12 91.3281 266.12C92.7201 266.12 93.7601 267.064 93.8881 268.328H88.6241ZM100.073 265.064C99.2729 265.064 98.3769 265.608 97.9449 266.456V265.224H96.7769V273H97.9449V267.64C98.4409 266.696 99.3049 266.136 99.9929 266.136C100.265 266.136 100.585 266.184 100.825 266.28L100.889 265.176C100.681 265.112 100.393 265.064 100.073 265.064ZM109.99 265.064C108.854 265.064 107.702 265.656 107.254 266.44V261.8H106.086V273H107.254V271.784C107.718 272.568 108.87 273.16 109.99 273.16C112.182 273.16 113.862 271.4 113.862 269.096C113.862 266.808 112.182 265.064 109.99 265.064ZM109.782 272.056C108.758 272.056 107.718 271.464 107.254 270.648V267.592C107.702 266.744 108.742 266.152 109.782 266.152C111.446 266.152 112.71 267.4 112.71 269.096C112.71 270.792 111.446 272.056 109.782 272.056ZM122.534 268.76C122.534 266.68 120.918 265.064 118.822 265.064C116.614 265.064 114.87 266.824 114.87 269.064C114.87 271.416 116.646 273.16 118.838 273.16C120.422 273.16 121.734 272.488 122.326 271.416L121.398 270.824C120.95 271.624 119.99 272.104 118.87 272.104C117.302 272.104 116.134 271 116.022 269.32H122.502C122.518 269.176 122.534 268.904 122.534 268.76ZM116.07 268.328C116.342 266.984 117.398 266.12 118.774 266.12C120.166 266.12 121.206 267.064 121.334 268.328H116.07ZM128.111 265.064C126.975 265.064 125.903 265.592 125.391 266.44V265.224H124.223V273H125.391V267.576C125.871 266.728 126.847 266.2 127.871 266.2C129.231 266.2 130.143 267.176 130.143 268.68V273H131.311V268.52C131.311 266.424 130.047 265.064 128.111 265.064ZM140.671 268.76C140.671 266.68 139.055 265.064 136.959 265.064C134.751 265.064 133.007 266.824 133.007 269.064C133.007 271.416 134.783 273.16 136.975 273.16C138.559 273.16 139.871 272.488 140.463 271.416L139.535 270.824C139.087 271.624 138.127 272.104 137.007 272.104C135.439 272.104 134.271 271 134.159 269.32H140.639C140.655 269.176 140.671 268.904 140.671 268.76ZM134.207 268.328C134.479 266.984 135.535 266.12 136.911 266.12C138.303 266.12 139.343 267.064 139.471 268.328H134.207ZM145.722 262.6C145.882 262.6 146.09 262.632 146.234 262.68L146.314 261.656C146.106 261.576 145.834 261.528 145.578 261.528C144.01 261.528 142.89 262.552 142.89 264.344V265.224H141.338V266.312H142.89V273H144.042V266.312H146.234V265.224H144.042V264.376C144.042 263.256 144.778 262.6 145.722 262.6ZM148.387 261.832C147.923 261.832 147.555 262.216 147.555 262.664C147.555 263.128 147.923 263.512 148.387 263.512C148.835 263.512 149.235 263.128 149.235 262.664C149.235 262.216 148.835 261.832 148.387 261.832ZM147.795 265.224V273H148.963V265.224H147.795ZM155.121 271.928C154.977 271.976 154.769 272.008 154.609 272.008C153.665 272.008 152.929 271.368 152.929 270.232V266.312H155.121V265.224H152.929V263.08H151.777V265.224H150.225V266.312H151.777V270.28C151.777 272.072 152.897 273.08 154.465 273.08C154.721 273.08 154.993 273.032 155.201 272.952L155.121 271.928ZM159.288 273.16C161.032 273.16 162.216 272.2 162.216 270.888C162.216 267.88 157.544 269.096 157.544 267.256C157.544 266.52 158.168 266.04 159.128 266.04C159.88 266.04 160.888 266.376 161.416 266.952L161.96 266.072C161.352 265.416 160.28 265.064 159.224 265.064C157.528 265.064 156.376 265.976 156.376 267.336C156.376 270.232 161.032 268.904 161.032 270.92C161.032 271.64 160.344 272.184 159.272 272.184C158.36 272.184 157.288 271.768 156.68 271.16L156.152 272.04C156.888 272.712 158.12 273.16 159.288 273.16Z" fill="#0062FF"/>
<path d="M172 272L178 266L172 260" stroke="#0062FF" stroke-width="2" stroke-linecap="square" stroke-linejoin="round"/>
<path d="M136.029 394.14C138.185 394.14 139.767 392.516 139.767 390.332V384.2H138.703V390.332C138.703 391.928 137.569 393.118 136.029 393.118C134.489 393.118 133.355 391.928 133.355 390.332V384.2H132.305V390.332C132.305 392.516 133.887 394.14 136.029 394.14ZM144.775 387.056C143.795 387.056 142.787 387.574 142.381 388.246V387.196H141.359V396.576H142.381V392.936C142.773 393.622 143.781 394.14 144.775 394.14C146.693 394.14 148.163 392.6 148.163 390.598C148.163 388.582 146.693 387.056 144.775 387.056ZM144.593 393.174C143.683 393.174 142.773 392.656 142.381 391.928V389.254C142.787 388.526 143.697 388.008 144.593 388.008C146.049 388.008 147.155 389.114 147.155 390.598C147.155 392.082 146.049 393.174 144.593 393.174ZM154.397 384.2V388.26C154.019 387.574 153.011 387.056 152.017 387.056C150.085 387.056 148.615 388.582 148.615 390.584C148.615 392.6 150.085 394.14 152.017 394.14C152.997 394.14 154.005 393.622 154.397 392.936V394H155.419V384.2H154.397ZM152.185 393.174C150.729 393.174 149.623 392.068 149.623 390.584C149.623 389.1 150.729 388.008 152.185 388.008C153.095 388.008 154.005 388.526 154.397 389.268V391.942C153.991 392.656 153.081 393.174 152.185 393.174ZM162.059 387.196V388.26C161.681 387.574 160.673 387.056 159.679 387.056C157.747 387.056 156.277 388.582 156.277 390.584C156.277 392.6 157.747 394.14 159.679 394.14C160.659 394.14 161.667 393.622 162.059 392.936V394H163.081V387.196H162.059ZM159.847 393.174C158.391 393.174 157.285 392.068 157.285 390.584C157.285 389.1 158.391 388.008 159.847 388.008C160.757 388.008 161.667 388.526 162.059 389.268V391.942C161.653 392.656 160.743 393.174 159.847 393.174ZM168.037 393.062C167.911 393.104 167.729 393.132 167.589 393.132C166.763 393.132 166.119 392.572 166.119 391.578V388.148H168.037V387.196H166.119V385.32H165.111V387.196H163.753V388.148H165.111V391.62C165.111 393.188 166.091 394.07 167.463 394.07C167.687 394.07 167.925 394.028 168.107 393.958L168.037 393.062ZM174.876 390.29C174.876 388.47 173.462 387.056 171.628 387.056C169.696 387.056 168.17 388.596 168.17 390.556C168.17 392.614 169.724 394.14 171.642 394.14C173.028 394.14 174.176 393.552 174.694 392.614L173.882 392.096C173.49 392.796 172.65 393.216 171.67 393.216C170.298 393.216 169.276 392.25 169.178 390.78H174.848C174.862 390.654 174.876 390.416 174.876 390.29ZM169.22 389.912C169.458 388.736 170.382 387.98 171.586 387.98C172.804 387.98 173.714 388.806 173.826 389.912H169.22ZM181.108 384.2V388.26C180.73 387.574 179.722 387.056 178.728 387.056C176.796 387.056 175.326 388.582 175.326 390.584C175.326 392.6 176.796 394.14 178.728 394.14C179.708 394.14 180.716 393.622 181.108 392.936V394H182.13V384.2H181.108ZM178.896 393.174C177.44 393.174 176.334 392.068 176.334 390.584C176.334 389.1 177.44 388.008 178.896 388.008C179.806 388.008 180.716 388.526 181.108 389.268V391.942C180.702 392.656 179.792 393.174 178.896 393.174ZM187.106 389.394C187.582 389.394 187.932 389.044 187.932 388.596C187.932 388.134 187.582 387.77 187.106 387.77C186.644 387.77 186.294 388.134 186.294 388.596C186.294 389.044 186.644 389.394 187.106 389.394ZM187.106 394.14C187.582 394.14 187.932 393.79 187.932 393.328C187.932 392.88 187.582 392.516 187.106 392.516C186.644 392.516 186.294 392.88 186.294 393.328C186.294 393.79 186.644 394.14 187.106 394.14ZM195.313 394.14C197.525 394.14 198.841 392.208 198.841 389.1C198.841 385.992 197.525 384.06 195.313 384.06C193.087 384.06 191.771 385.992 191.771 389.1C191.771 392.208 193.087 394.14 195.313 394.14ZM195.313 393.118C193.759 393.118 192.863 391.69 192.863 389.1C192.863 386.51 193.759 385.082 195.313 385.082C196.853 385.082 197.763 386.51 197.763 389.1C197.763 391.69 196.853 393.118 195.313 393.118ZM199.296 394H205.75V392.978H200.948L203.818 390.094C204.938 389.016 205.624 387.952 205.624 386.888C205.624 385.236 204.322 384.06 202.586 384.06C200.766 384.06 199.366 385.32 199.324 387.154L200.36 387.224C200.416 385.908 201.284 385.082 202.572 385.082C203.72 385.082 204.546 385.852 204.546 386.916C204.546 387.686 204.042 388.456 203.062 389.45L199.296 393.216V394ZM205.989 394H207.081L211.393 384.2H210.301L205.989 394ZM214.999 384.2H214.229L211.681 386.286V387.588L213.935 385.656V394H214.999V384.2ZM219.572 384.2H218.802L216.254 386.286V387.588L218.508 385.656V394H219.572V384.2ZM220.294 394H221.386L225.698 384.2H224.606L220.294 394ZM225.671 394H232.125V392.978H227.323L230.193 390.094C231.313 389.016 231.999 387.952 231.999 386.888C231.999 385.236 230.697 384.06 228.961 384.06C227.141 384.06 225.741 385.32 225.699 387.154L226.735 387.224C226.791 385.908 227.659 385.082 228.947 385.082C230.095 385.082 230.921 385.852 230.921 386.916C230.921 387.686 230.417 388.456 229.437 389.45L225.671 393.216V394ZM236.288 394.14C238.5 394.14 239.816 392.208 239.816 389.1C239.816 385.992 238.5 384.06 236.288 384.06C234.062 384.06 232.746 385.992 232.746 389.1C232.746 392.208 234.062 394.14 236.288 394.14ZM236.288 393.118C234.734 393.118 233.838 391.69 233.838 389.1C233.838 386.51 234.734 385.082 236.288 385.082C237.828 385.082 238.738 386.51 238.738 389.1C238.738 391.69 237.828 393.118 236.288 393.118ZM240.27 394H246.724V392.978H241.922L244.792 390.094C245.912 389.016 246.598 387.952 246.598 386.888C246.598 385.236 245.296 384.06 243.56 384.06C241.74 384.06 240.34 385.32 240.298 387.154L241.334 387.224C241.39 385.908 242.258 385.082 243.546 385.082C244.694 385.082 245.52 385.852 245.52 386.916C245.52 387.686 245.016 388.456 244.036 389.45L240.27 393.216V394ZM250.705 384.2H249.935L247.387 386.286V387.588L249.641 385.656V394H250.705V384.2Z" fill="#B5B5BE"/>
</g>
<rect x="16.5" y="6.5" width="342" height="415" rx="7.5" stroke="#FAFAFB"/>
</g>
<defs>
<filter id="filter0_d_0_393" x="-2" y="0" width="379" height="452" filterUnits="userSpaceOnUse" color-interpolation-filters="sRGB">
<feFlood flood-opacity="0" result="BackgroundImageFix"/>
<feColorMatrix in="SourceAlpha" type="matrix" values="0 0 0 0 0 0 0 0 0 0 0 0 0 0 0 0 0 0 127 0" result="hardAlpha"/>
<feOffset dy="12"/>
<feGaussianBlur stdDeviation="9"/>
<feColorMatrix type="matrix" values="0 0 0 0 0.0901961 0 0 0 0 0.0901961 0 0 0 0 0.145098 0 0 0 0.04 0"/>
<feBlend mode="normal" in2="BackgroundImageFix" result="effect1_dropShadow_0_393"/>
<feBlend mode="normal" in="SourceGraphic" in2="effect1_dropShadow_0_393" result="shape"/>
</filter>
<clipPath id="clip0_0_393">
<rect x="16" y="6" width="343" height="416" rx="8" fill="white"/>
</clipPath>
</defs>
</svg>
